PathFileType	4	(X/Y/Z)	C:\Users\86182\Documents\cortex\Trimmed_M1_H9.trc
DataRate	CameraRate	NumFrames	NumMarkers	Units	OrigDataRate	OrigDataStartFrame	OrigNumFrames
100.00	100.00	       140	2	mm	100.00	721	       901
Frame#	Time	gripper			box			
		X1	Y1	Z1	X2	Y2	Z2	

721	7.200	222.48340	204.46948	286.50101	227.90585	203.73418	136.55600	
722	7.210	222.37131	204.46031	286.51288	227.90584	203.73418	136.55603	
723	7.220	222.34772	204.43755	286.50876	227.90584	203.73416	136.55608	
724	7.230	222.29062	204.47543	286.51279	227.90582	203.73415	136.55615	
725	7.240	222.42961	204.48972	286.50415	227.90581	203.73413	136.55626	
726	7.250	222.40190	204.45299	286.50430	227.90579	203.73410	136.55641	
727	7.260	222.58118	204.48245	286.49478	227.90576	203.73407	136.55661	
728	7.270	222.40640	204.46809	286.50824	227.90575	203.73404	136.55682	
729	7.280	222.43179	204.46733	286.50238	227.90572	203.73399	136.55701	
730	7.290	222.37198	204.46487	286.50369	227.90570	203.73398	136.55710	
731	7.300	222.50153	204.46899	286.49460	227.90572	203.73399	136.55705	
732	7.310	222.33142	204.48584	286.49686	227.90573	203.73401	136.55693	
733	7.320	222.49399	204.47606	286.49896	227.90573	203.73402	136.55682	
734	7.330	222.41251	204.47571	286.50262	227.90575	203.73404	136.55679	
735	7.340	222.31052	204.48018	286.50937	227.90573	203.73402	136.55682	
736	7.350	222.41989	204.49785	286.50845	227.90573	203.73401	136.55693	
737	7.360	222.24683	204.47922	286.51770	227.90572	203.73399	136.55705	
738	7.370	222.35156	204.46735	286.50494	227.90570	203.73398	136.55710	
739	7.380	222.25890	204.47937	286.51535	227.90572	203.73399	136.55699	
740	7.390	222.19641	204.45647	286.52161	227.90575	203.73402	136.55681	
741	7.400	222.22783	204.49619	286.52115	227.90576	203.73407	136.55658	
742	7.410	222.29840	204.47731	286.51102	227.90579	203.73410	136.55640	
743	7.420	222.29834	204.44487	286.51944	227.90581	203.73413	136.55623	
744	7.430	222.32668	204.45647	286.51556	227.90582	203.73415	136.55612	
745	7.440	222.31844	204.47841	286.51187	227.90584	203.73416	136.55606	
746	7.450	222.34125	204.46240	286.50598	227.90584	203.73416	136.55603	
747	7.460	222.42212	204.48848	286.51007	227.90584	203.73418	136.55600	
748	7.470	222.26598	204.46031	286.51715	227.90584	203.73418	136.55602	
749	7.480	222.39299	204.46306	286.50647	227.90584	203.73418	136.55603	
750	7.490	222.50427	204.46497	286.49567	227.90584	203.73416	136.55603	
751	7.500	222.42403	204.45311	286.50497	227.90584	203.73416	136.55605	
752	7.510	222.34471	204.49426	286.50537	227.90584	203.73416	136.55606	
753	7.520	222.30568	204.44536	286.50943	227.90584	203.73416	136.55606	
754	7.530	222.38995	204.49991	286.50156	227.90584	203.73416	136.55606	
755	7.540	222.30013	204.45937	286.51547	227.90584	203.73416	136.55606	
756	7.550	222.32944	204.44789	286.52124	227.90584	203.73416	136.55606	
757	7.560	222.36024	204.45831	286.51199	227.90584	203.73416	136.55606	
758	7.570	222.36166	204.45993	286.50473	227.90584	203.73416	136.55606	
759	7.580	222.37254	204.44519	286.51550	227.90584	203.73416	136.55606	
760	7.590	222.46634	204.45753	286.50357	227.90584	203.73416	136.55606	
761	7.600	222.49033	204.47427	286.49731	227.90584	203.73416	136.55606	
762	7.610	222.34509	204.47623	286.51608	227.90584	203.73416	136.55606	
763	7.620	222.41385	204.44824	286.50598	227.90584	203.73416	136.55606	
764	7.630	222.52481	204.44817	286.50424	227.90584	203.73416	136.55603	
765	7.640	222.43819	204.45462	286.50446	227.90584	203.73416	136.55603	
766	7.650	222.37053	204.51152	286.51312	227.90584	203.73418	136.55603	
767	7.660	222.45844	204.45566	286.50537	227.90584	203.73418	136.55603	
768	7.670	222.50253	204.45358	286.50369	227.90584	203.73416	136.55603	
769	7.680	222.33400	204.47414	286.51517	227.90584	203.73416	136.55608	
770	7.690	222.32799	204.47456	286.51379	227.90582	203.73415	136.55615	
771	7.700	222.48918	204.47040	286.50238	227.90581	203.73413	136.55626	
772	7.710	222.38846	204.43607	286.50842	227.90579	203.73410	136.55643	
773	7.720	222.42638	204.45615	286.50577	227.90576	203.73407	136.55663	
774	7.730	222.46281	204.43991	286.50665	227.90573	203.73402	136.55685	
775	7.740	222.35728	204.45888	286.51337	227.90570	203.73399	136.55704	
776	7.750	222.49673	204.45470	286.50641	227.90570	203.73398	136.55713	
777	7.760	222.34474	204.47554	286.51199	227.90570	203.73399	136.55704	
778	7.770	222.28452	204.45135	286.51294	227.90573	203.73402	136.55685	
779	7.780	222.34341	204.45737	286.51376	227.90576	203.73407	136.55663	
780	7.790	222.23901	204.49770	286.51154	227.90579	203.73410	136.55641	
781	7.800	222.46463	204.42476	286.50922	227.90581	203.73413	136.55624	
782	7.810	222.38135	204.45227	286.50854	227.90582	203.73415	136.55614	
783	7.820	222.45699	204.48323	286.50204	227.90584	203.73416	136.55606	
784	7.830	222.48053	204.45905	286.50311	227.90584	203.73416	136.55603	
785	7.840	222.44965	204.46539	286.50247	227.90584	203.73418	136.55603	
786	7.850	222.43051	204.46144	286.50339	227.90584	203.73418	136.55603	
787	7.860	222.43636	204.47334	286.50409	227.90584	203.73416	136.55603	
788	7.870	222.56689	204.47377	286.49927	227.90584	203.73416	136.55603	
789	7.880	222.49583	204.46637	286.50162	227.90584	203.73416	136.55605	
790	7.890	222.44049	204.45763	286.50534	227.90584	203.73416	136.55605	
791	7.900	222.40617	204.45506	286.50488	227.90584	203.73416	136.55605	
792	7.910	222.38750	204.45184	286.50992	227.90584	203.73416	136.55605	
793	7.920	222.50015	204.47366	286.49622	227.90584	203.73416	136.55605	
794	7.930	222.36813	204.47252	286.50940	227.90584	203.73416	136.55605	
795	7.940	222.44588	204.46881	286.50189	227.90584	203.73416	136.55606	
796	7.950	222.42363	204.46968	286.51053	227.90584	203.73416	136.55608	
797	7.960	222.43690	204.46979	286.50186	227.90582	203.73415	136.55612	
798	7.970	222.38538	204.46184	286.51242	227.90582	203.73415	136.55620	
799	7.980	222.44331	204.45708	286.50397	227.90581	203.73413	136.55630	
800	7.990	222.31284	204.45076	286.50983	227.90579	203.73410	136.55643	
801	8.000	222.30864	204.45772	286.51144	227.90578	203.73409	136.55656	
802	8.010	222.37288	204.48659	286.50415	227.90576	203.73405	136.55667	
803	8.020	222.44460	204.46297	286.50296	227.90576	203.73404	136.55675	
804	8.030	222.34253	204.46024	286.51190	227.90575	203.73404	136.55682	
805	8.040	222.35031	204.46213	286.51010	227.90573	203.73401	136.55692	
806	8.050	222.35144	204.45874	286.50143	227.90572	203.73399	136.55704	
807	8.060	222.57108	204.48099	286.49387	227.90570	203.73398	136.55714	
808	8.070	222.39659	204.47191	286.50632	227.90570	203.73398	136.55716	
809	8.080	222.43768	204.47014	286.50079	227.90572	203.73399	136.55704	
810	8.090	222.31230	204.46652	286.51126	227.90573	203.73402	136.55682	
811	8.100	222.51163	204.45258	286.50369	227.90576	203.73407	136.55658	
812	8.110	222.41232	204.45894	286.51038	227.90579	203.73412	136.55637	
813	8.120	222.43639	204.45033	286.50363	227.90582	203.73413	136.55621	
814	8.130	222.44797	204.45383	286.49374	227.90584	203.73415	136.55611	
815	8.140	222.38354	204.47563	286.50168	227.90584	203.73416	136.55608	
816	8.150	222.37729	204.45410	286.50906	227.90584	203.73416	136.55609	
817	8.160	222.47029	204.45413	286.50409	227.90582	203.73415	136.55617	
818	8.170	222.37828	204.43120	286.50943	227.90581	203.73413	136.55627	
819	8.180	222.42033	204.45657	286.50436	227.90579	203.73410	136.55643	
820	8.190	222.44331	204.45708	286.50397	227.90578	203.73407	136.55656	
821	8.200	222.49861	204.45706	286.50314	227.90576	203.73405	136.55667	
822	8.210	222.31990	204.43950	286.52005	227.90576	203.73405	136.55673	
823	8.220	222.47182	204.46008	286.49875	227.90576	203.73405	136.55673	
824	8.230	222.32022	204.46848	286.50943	227.90576	203.73405	136.55673	
825	8.240	222.28410	204.47935	286.51361	227.90576	203.73405	136.55673	
826	8.250	222.31631	204.46382	286.51587	227.90576	203.73405	136.55669	
827	8.260	222.43179	204.46733	286.50238	227.90578	203.73407	136.55659	
828	8.270	222.42680	204.48103	286.49136	227.90579	203.73410	136.55646	
829	8.280	222.44478	204.46785	286.51334	227.90581	203.73412	136.55634	
830	8.290	222.39000	204.47588	286.50711	227.90582	203.73413	136.55621	
831	8.300	222.38914	204.45836	286.51294	227.90582	203.73415	136.55614	
832	8.310	222.47020	204.47525	286.50046	227.90584	203.73416	136.55609	
833	8.320	222.43819	204.45462	286.50446	227.90584	203.73416	136.55606	
834	8.330	222.53336	204.46834	286.50070	227.90584	203.73416	136.55603	
835	8.340	222.42201	204.45406	286.50522	227.90584	203.73416	136.55603	
836	8.350	222.41010	204.45166	286.50540	227.90584	203.73416	136.55603	
837	8.360	222.32370	204.44409	286.51355	227.90584	203.73416	136.55603	
838	8.370	222.27287	204.46507	286.51352	227.90584	203.73416	136.55605	
839	8.380	222.27489	204.47995	286.50760	227.90584	203.73416	136.55606	
840	8.390	222.46960	204.48595	286.50079	227.90584	203.73416	136.55606	
841	8.400	222.24475	204.45345	286.51727	227.90584	203.73416	136.55606	
842	8.410	222.32483	204.46217	286.51184	227.90584	203.73416	136.55606	
843	8.420	222.41649	204.46001	286.50385	227.90584	203.73416	136.55608	
844	8.430	222.36960	204.47319	286.50726	227.90584	203.73416	136.55608	
845	8.440	222.45616	204.45265	286.50455	227.90584	203.73416	136.55608	
846	8.450	222.38725	204.43021	286.50943	227.90584	203.73416	136.55608	
847	8.460	222.48894	204.47363	286.49942	227.90584	203.73416	136.55606	
848	8.470	222.45988	204.47031	286.50146	227.90584	203.73416	136.55606	
849	8.480	222.47977	204.45187	286.50415	227.90584	203.73416	136.55606	
850	8.490	222.43939	204.46048	286.50348	227.90584	203.73416	136.55606	
851	8.500	222.44337	204.47818	286.50037	227.90584	203.73416	136.55606	
852	8.510	222.47676	204.48361	286.49887	227.90584	203.73416	136.55606	
853	8.520	222.33907	204.49002	286.49994	227.90584	203.73416	136.55606	
854	8.530	222.39908	204.46205	286.49734	227.90584	203.73416	136.55606	
855	8.540	222.34821	204.45914	286.50922	227.90584	203.73416	136.55606	
856	8.550	222.33052	204.44882	286.50989	227.90584	203.73416	136.55606	
857	8.560	222.30125	204.46451	286.51041	227.90584	203.73416	136.55606	
858	8.570	222.37123	204.47162	286.50293	227.90584	203.73416	136.55606	
859	8.580	222.36481	204.46432	286.51367	227.90584	203.73416	136.55606	
860	8.590	222.48383	204.49214	286.48926	227.90584	203.73416	136.55606	
